<?xml version="1.0" encoding="utf-8"?>
<!-- Generator: Adobe Illustrator 24.1.1, SVG Export Plug-In . SVG Version: 6.00 Build 0)  -->
<svg version="1.1" id="Layer_1" xmlns="http://www.w3.org/2000/svg" xmlns:xlink="http://www.w3.org/1999/xlink" x="0px" y="0px"
	 viewBox="0 0 467 467" style="enable-background:new 0 0 467 467;" xml:space="preserve">
<style type="text/css">
	.st0{fill-rule:evenodd;clip-rule:evenodd;}
</style>
<path d="M228.6,131.7l-37.2,37.2c-1.5,1.5-1.5,3.9,0,5.4l37.3,37.2c1.5,1.5,3.9,1.5,5.4,0l37.1-37.2c1.5-1.5,1.5-3.9,0-5.4
	l-37.3-37.2C232.6,130.2,230.1,130.2,228.6,131.7z M244.8,181c4.1,4.1,3.5,8.3,0.1,11.8c-3.1,3.1-7.5,3.3-10.4,2.3l1.3-5.1
	c1.7,0.5,3.5,0.4,4.8-1c1.3-1.3,1.5-2.5-0.4-4.5l-12.8-12.8l4.1-4.1L244.8,181z M259.5,178.1c-3.6,3.6-7.4,3.8-10.8,2.7l1-5.1
	c2.2,0.5,4.4,0.9,6.3-1c1.6-1.6,1.6-3.2,0.5-4.4c-1.3-1.3-2.7-0.9-5.2,0.1l-1.4,0.6c-4,1.6-7.3,2-10.5-1.2
	c-2.9-2.9-2.9-7.3,0.5-10.8c2.5-2.5,5.1-3.4,8.6-2.4l-1.1,5c-1.9-0.5-3-0.3-4.2,0.8c-1.1,1.1-1.1,2.6-0.2,3.5c1.2,1.2,2.3,0.9,4.7,0
	l1.4-0.6c4.7-1.9,8-2.3,11.2,0.9C264,169.7,263.2,174.4,259.5,178.1z"/>
<path d="M198.6,39c-0.1,0.1-0.4,0.5-0.7,0.9c-6.9,8-10.2,18.9-8.9,29.2c0.7,5.8,2.8,11.1,6.1,15.7c1.1,1.6,1.5,2,3.4,3.9
	c1.8,1.9,2.3,2.3,3.9,3.5c10.8,8.1,25.7,9.2,38.3,2.8c2.3-1.2,4.4-2.6,6.7-4.4c0.9-0.7,4.4-4.1,5.1-5c3.2-3.9,5.4-7.7,7-12
	c0.2-0.7,0.3-0.8,0.2-0.8c-0.1,0-4.5-0.6-9.8-1.3l-9.6-1.3l-12.7-2.3c-7-1.3-12.7-2.3-12.7-2.3s3.2,3.4,7.2,7.5
	c7,7.2,7.2,7.5,7.3,7.7c0.1,0.4,0.1,0.6,0,0.9c-0.1,0.2-0.2,0.4-1,1.2l-0.9,0.9l-0.4,0.1c-0.2,0.1-0.5,0-0.7,0l-0.3-0.1l-9.7-10
	l-9.7-10v-0.4c0-0.2,0-0.5,0.1-0.7c0.1-0.3,0.2-0.4,1.1-1.3c1.1-1,1.3-1.2,1.8-1.2c0.2,0,7.1,1.3,15.4,3c8.3,1.6,19.7,3.9,25.3,5
	l10.2,2l0.1-0.3c0.8-3,1.1-6.6,1-9.9c-0.2-7-2.4-13.6-6.4-19.1c-1.1-1.6-1.5-2-3.4-3.9c-1.8-1.9-2.3-2.3-3.9-3.5
	c-10.8-8.1-25.7-9.2-38.3-2.8c-2.2,1.1-4.4,2.5-6.6,4.3C202.5,35.3,199,38.6,198.6,39L198.6,39z M224.5,43.8
	c0.4-0.1,0.8-0.1,1.1,0.1c0.2,0.1,2.9,2.8,8.9,9.1l8.7,9l-4-0.8l-4-0.8l-6.3-6.5c-4.1-4.2-6.4-6.6-6.5-6.7c-0.2-0.4-0.2-0.8-0.1-1.1
	c0.1-0.3,0.2-0.4,1-1.2C224.1,44,224.3,43.9,224.5,43.8L224.5,43.8z"/>
<path class="st0" d="M350,173c-1.1,0.5-2.2,1.2-3.2,2.1c-2,1.8-3.8,4.3-5.4,7.3c-0.6,1.2-1.2,2.5-1.8,3.9c-1.4-0.4-2.7-0.8-4-1.1
	c-3.4-0.7-6.4-1-9.1-0.6c-2.6,0.4-5,1.4-6.4,3.3c-1.4,1.9-1.7,4.3-1.2,6.8s1.8,5.1,3.7,7.8c0.7,0.9,1.4,1.9,2.2,2.9
	c-0.9,0.8-1.8,1.6-2.7,2.4c-2.4,2.4-4.3,4.8-5.4,7.2c-1.1,2.3-1.4,4.7-0.4,6.8c0.9,2,2.9,3.4,5.4,4.1s5.5,0.9,8.9,0.6
	c1.2-0.1,2.5-0.3,3.8-0.5c0.3,1.7,0.6,3.2,1,4.7c0.9,3.2,2,5.9,3.6,7.9c1.5,2,3.5,3.4,5.9,3.5s4.7-1,6.7-2.7s3.8-4.3,5.4-7.3
	c0.6-1.2,1.2-2.5,1.8-3.8c1.4,0.4,2.8,0.8,4.1,1.1c3.4,0.7,6.4,1,9.1,0.6s5-1.4,6.4-3.3s1.7-4.3,1.2-6.8s-1.8-5.1-3.7-7.8
	c-0.9-1.2-1.9-2.5-3-3.8c1.1-0.9,2.1-1.8,2.9-2.7c2.4-2.4,4.3-4.8,5.4-7.2c1.1-2.3,1.4-4.7,0.4-6.8c-0.9-2-2.9-3.4-5.4-4.1
	c-2.5-0.7-5.5-0.9-8.9-0.6c-1.2,0.1-2.4,0.3-3.6,0.5c-0.2-1.2-0.5-2.5-0.8-3.6c-0.9-3.2-2-5.9-3.6-7.9s-3.5-3.4-5.9-3.5
	C352.3,172.3,351.1,172.6,350,173z M351.1,175.8c0.7-0.3,1.4-0.4,2-0.4c1.3,0.1,2.5,0.8,3.7,2.4c1.2,1.6,2.3,3.9,3.1,6.9
	c0.3,1,0.5,2.1,0.7,3.3c-3.2,0.7-6.6,1.7-10.1,3c-2.7-1.4-5.4-2.6-8-3.6c0.5-1.3,1.1-2.5,1.7-3.6c1.5-2.8,3.1-5,4.7-6.4
	C349.7,176.6,350.4,176.1,351.1,175.8z M324.2,188.3c0.7-0.3,1.5-0.6,2.6-0.7c2.1-0.3,4.8-0.1,7.9,0.6c1.2,0.3,2.5,0.6,3.8,1
	c-0.9,2.6-1.8,5.5-2.5,8.5c-3.2,1.9-6.2,3.8-8.8,5.8c-0.7-0.9-1.4-1.8-2-2.6c-1.7-2.5-2.8-4.9-3.3-6.8c-0.4-1.9-0.2-3.4,0.6-4.4
	C323,189,323.5,188.6,324.2,188.3z M341.4,190.1c1.7,0.6,3.5,1.4,5.2,2.2c-1.1,0.5-2.3,1-3.5,1.5s-2.3,1.1-3.5,1.7
	C340.3,193.7,340.8,191.9,341.4,190.1z M344.4,196.6c1.9-0.9,3.8-1.7,5.7-2.4c2,1.1,4.1,2.3,6.2,3.7c1.8,1.2,3.5,2.4,5.1,3.7
	c-0.1,2.1-0.3,4.2-0.5,6.4c-0.2,1.9-0.5,3.8-0.9,5.6c-2,1.1-4.1,2.2-6.3,3.2c-2.3,1-4.5,2-6.7,2.8c-1.6-0.9-3.2-1.9-4.8-2.9
	c-1.8-1.2-3.5-2.4-5.2-3.7c0.1-2.1,0.3-4.2,0.5-6.4c0.3-2.4,0.7-4.8,1.2-7C340.6,198.4,342.5,197.5,344.4,196.6z M354,192.8
	c2.5-0.8,4.8-1.4,7.1-1.9c0.3,2.1,0.4,4.4,0.4,6.8c-1.1-0.8-2.2-1.6-3.3-2.3C356.8,194.5,355.4,193.6,354,192.8z M335.3,201.5
	c-0.3,1.6-0.5,3.1-0.7,4.8c-0.2,1.4-0.3,2.8-0.4,4.1c-1.8-1.6-3.5-3.2-4.9-4.7C331,204.2,333.1,202.9,335.3,201.5z M364.2,190.3
	c1.1-0.2,2.2-0.3,3.3-0.4c3.2-0.3,5.9-0.1,7.8,0.5s3.1,1.4,3.6,2.5s0.4,2.5-0.4,4.4c-0.8,1.8-2.4,4-4.7,6.2
	c-0.8,0.8-1.8,1.7-2.7,2.5c-1.9-2-4-3.9-6.4-5.8C364.7,196.6,364.6,193.3,364.2,190.3z M326.8,207.6c2.1,2.2,4.5,4.5,7.2,6.6
	c-0.1,3.1,0,6,0.3,8.7c-1.2,0.2-2.4,0.4-3.6,0.5c-3.2,0.3-5.9,0.1-7.8-0.5s-3.1-1.4-3.6-2.5s-0.4-2.5,0.4-4.4c0.8-1.8,2.4-4,4.7-6.2
	C325.1,209.1,325.9,208.3,326.8,207.6z M346.3,200.5c-3.9,1.8-5.7,6.3-4,9.9c1.7,3.6,6.3,5.1,10.2,3.3c3.9-1.8,5.7-6.3,4-9.9
	C354.8,200.2,350.2,198.7,346.3,200.5z M337.1,216.7c1.1,0.8,2.2,1.6,3.4,2.4c0.9,0.6,1.8,1.2,2.8,1.7c-2,0.6-4,1.2-5.9,1.6
	C337.2,220.5,337.1,218.6,337.1,216.7z M364.5,204c1.5,1.3,2.9,2.6,4.2,3.9c-1.5,1.2-3.2,2.3-5,3.4c0.2-1.1,0.3-2.2,0.5-3.3
	C364.2,206.7,364.4,205.3,364.5,204z M337.7,225.3c2.8-0.6,5.8-1.5,8.9-2.6c3.2,1.7,6.4,3.2,9.4,4.3c-0.5,1.3-1.1,2.5-1.7,3.6
	c-1.5,2.8-3.1,5-4.7,6.4s-3,2-4.2,1.9s-2.5-0.8-3.7-2.4c-1.2-1.6-2.3-3.9-3.1-6.9C338.3,228.3,338,226.9,337.7,225.3z M370.6,210.1
	c1,1.2,2,2.4,2.8,3.5c1.7,2.5,2.8,4.9,3.3,6.8c0.4,1.9,0.2,3.4-0.6,4.4c-0.8,1-2.1,1.7-4.2,2s-4.8,0.1-7.9-0.6
	c-1.2-0.3-2.5-0.6-3.8-1.1c1.1-3.1,2.1-6.4,2.8-10C365.7,213.6,368.3,211.8,370.6,210.1z M350.5,221.3c1.5-0.6,3-1.2,4.5-1.9
	s2.9-1.4,4.3-2.1c-0.6,2.5-1.3,4.8-2.1,7C355,223.4,352.8,222.4,350.5,221.3z"/>
<path d="M94.8,73.6c-8.1,8.4-8.8,18-1.9,28.7c-1.4-7.5,0.5-12.8,5.7-15.9c3-1.8,6.5-1.7,10.3-1.6c6.3,0.1,13.6,0.3,21.2-7.5
	c8.1-8.4,8.8-18,1.9-28.7c1.4,7.5-0.5,12.8-5.7,15.9c-3,1.8-6.5,1.7-10.3,1.6C109.7,65.9,102.4,65.8,94.8,73.6z M99.6,108.8
	c-8.1,8.4-8.8,18-1.9,28.7c-1.4-7.5,0.5-12.8,5.7-15.9c3-1.8,6.5-1.7,10.3-1.6c6.3,0.1,13.6,0.3,21.2-7.5c8.1-8.4,8.8-18,1.9-28.7
	c1.4,7.5-0.5,12.8-5.7,15.9c-3,1.8-6.5,1.7-10.3,1.6C114.5,101.1,107.2,101,99.6,108.8z"/>
<path d="M82.2,303.5c-0.1,0.1-0.4,0.5-0.7,0.9c-6.9,8-10.2,18.9-8.9,29.2c0.7,5.8,2.8,11.1,6.1,15.7c1.1,1.6,1.5,2,3.4,3.9
	c1.8,1.9,2.3,2.3,3.9,3.5c10.8,8.1,25.7,9.2,38.3,2.8c2.3-1.2,4.4-2.6,6.7-4.4c0.9-0.7,4.4-4.1,5.1-5c3.2-3.9,5.4-7.7,7-12
	c0.2-0.7,0.3-0.8,0.2-0.8s-4.5-0.6-9.8-1.3l-9.6-1.3l-12.7-2.3c-7-1.3-12.7-2.3-12.7-2.3s3.2,3.4,7.2,7.5c7,7.2,7.2,7.5,7.3,7.7
	c0.1,0.4,0.1,0.6,0,0.9c-0.1,0.2-0.2,0.4-1,1.2l-0.9,0.9l-0.4,0.1c-0.2,0.1-0.5,0-0.7,0l-0.3-0.1l-9.7-10l-9.7-10v-0.4
	c0-0.2,0-0.5,0.1-0.7c0.1-0.3,0.2-0.4,1.1-1.3c1.1-1,1.3-1.2,1.8-1.2c0.2,0,7.1,1.3,15.4,3s19.7,3.9,25.3,5l10.2,2l0.1-0.3
	c0.8-3,1.1-6.6,1-9.9c-0.2-7-2.4-13.6-6.4-19.1c-1.1-1.6-1.5-2-3.4-3.9c-1.8-1.9-2.3-2.3-3.9-3.5c-10.8-8.1-25.7-9.2-38.3-2.8
	c-2.2,1.1-4.4,2.5-6.6,4.3C86.1,299.7,82.6,303,82.2,303.5L82.2,303.5z M108.1,308.3c0.4-0.1,0.8-0.1,1.1,0.1
	c0.2,0.1,2.9,2.8,8.9,9.1l8.7,9l-4-0.8l-4-0.8l-6.3-6.5c-4.1-4.2-6.4-6.6-6.5-6.7c-0.2-0.4-0.2-0.8-0.1-1.1c0.1-0.3,0.2-0.4,1-1.2
	C107.7,308.5,107.8,308.3,108.1,308.3L108.1,308.3z"/>
<path d="M317.2,304.3c-0.1,0.1-0.4,0.5-0.7,0.9c-6.9,8-10.2,18.9-8.9,29.2c0.7,5.8,2.8,11.1,6.1,15.7c1.1,1.6,1.5,2,3.4,3.9
	c1.8,1.9,2.3,2.3,3.9,3.5c10.8,8.1,25.7,9.2,38.3,2.8c2.3-1.2,4.4-2.6,6.7-4.4c0.9-0.7,4.4-4.1,5.1-5c3.2-3.9,5.4-7.7,7-12
	c0.2-0.7,0.3-0.8,0.2-0.8c-0.1,0-4.5-0.6-9.8-1.3l-9.6-1.3l-12.7-2.3c-7-1.3-12.7-2.3-12.7-2.3s3.2,3.4,7.2,7.5
	c7,7.2,7.2,7.5,7.3,7.7c0.1,0.4,0.1,0.6,0,0.9c-0.1,0.2-0.2,0.4-1,1.2l-0.9,0.9l-0.4,0.1c-0.2,0.1-0.5,0-0.7,0l-0.3-0.1l-9.7-10
	l-9.7-10v-0.4c0-0.2,0-0.5,0.1-0.7c0.1-0.3,0.2-0.4,1.1-1.3c1.1-1,1.3-1.2,1.8-1.2c0.2,0,7.1,1.3,15.4,3c8.3,1.6,19.7,3.9,25.3,5
	l10.2,2l0.1-0.3c0.8-3,1.1-6.6,1-9.9c-0.2-7-2.4-13.6-6.4-19.1c-1.1-1.6-1.5-2-3.4-3.9c-1.8-1.9-2.3-2.3-3.9-3.5
	c-10.8-8.1-25.7-9.2-38.3-2.8c-2.2,1.1-4.4,2.5-6.6,4.3C321.1,300.6,317.6,303.9,317.2,304.3L317.2,304.3z M343.1,309.1
	c0.4-0.1,0.8-0.1,1.1,0.1c0.2,0.1,2.9,2.8,8.9,9.1l8.7,9l-4-0.8l-4-0.8l-6.3-6.5c-4.1-4.2-6.4-6.6-6.5-6.7c-0.2-0.4-0.2-0.8-0.1-1.1
	c0.1-0.3,0.2-0.4,1-1.2C342.7,309.3,342.8,309.2,343.1,309.1L343.1,309.1z"/>
<path class="st0" d="M113.5,174.9c-1.1,0.5-2.2,1.2-3.2,2.1c-2,1.8-3.8,4.3-5.4,7.3c-0.6,1.2-1.2,2.5-1.8,3.9
	c-1.4-0.4-2.7-0.8-4-1.1c-3.4-0.7-6.4-1-9.1-0.6s-5,1.4-6.4,3.3c-1.4,1.9-1.7,4.3-1.2,6.8s1.8,5.1,3.7,7.8c0.7,0.9,1.4,1.9,2.2,2.9
	c-0.9,0.8-1.8,1.6-2.7,2.4c-2.4,2.4-4.3,4.8-5.4,7.2s-1.4,4.7-0.4,6.8c0.9,2,2.9,3.4,5.4,4.1s5.5,0.9,8.9,0.6
	c1.2-0.1,2.5-0.3,3.8-0.5c0.3,1.7,0.6,3.2,1,4.7c0.9,3.2,2,5.9,3.6,7.9c1.5,2,3.5,3.4,5.9,3.5s4.7-1,6.7-2.7c2-1.8,3.8-4.3,5.4-7.3
	c0.6-1.2,1.2-2.5,1.8-3.8c1.4,0.4,2.8,0.8,4.1,1.1c3.4,0.7,6.4,1,9.1,0.6c2.6-0.4,5-1.4,6.4-3.3c1.4-1.9,1.7-4.3,1.2-6.8
	s-1.8-5.1-3.7-7.8c-0.9-1.2-1.9-2.5-3-3.8c1.1-0.9,2.1-1.8,2.9-2.7c2.4-2.4,4.3-4.8,5.4-7.2c1.1-2.3,1.4-4.7,0.4-6.8
	c-0.9-2-2.9-3.4-5.4-4.1s-5.5-0.9-8.9-0.6c-1.2,0.1-2.4,0.3-3.6,0.5c-0.2-1.2-0.5-2.5-0.8-3.6c-0.9-3.2-2-5.9-3.6-7.9
	c-1.5-2-3.5-3.4-5.9-3.5C115.8,174.2,114.6,174.4,113.5,174.9z M114.6,177.6c0.7-0.3,1.4-0.4,2-0.4c1.3,0.1,2.5,0.8,3.7,2.4
	c1.2,1.6,2.3,3.9,3.1,6.9c0.3,1,0.5,2.1,0.7,3.3c-3.2,0.7-6.6,1.7-10.1,3c-2.7-1.4-5.4-2.6-8-3.6c0.5-1.3,1.1-2.5,1.7-3.6
	c1.5-2.8,3.1-5,4.7-6.4C113.2,178.4,113.9,177.9,114.6,177.6z M87.7,190.1c0.7-0.3,1.5-0.6,2.6-0.7c2.1-0.3,4.8-0.1,7.9,0.6
	c1.2,0.3,2.5,0.6,3.8,1c-0.9,2.6-1.8,5.5-2.5,8.5c-3.2,1.9-6.2,3.8-8.8,5.8c-0.7-0.9-1.4-1.8-2-2.6c-1.7-2.5-2.8-4.9-3.3-6.8
	c-0.4-1.9-0.2-3.4,0.6-4.4C86.5,190.9,87,190.4,87.7,190.1z M104.9,192c1.7,0.6,3.5,1.4,5.2,2.2c-1.1,0.5-2.3,1-3.5,1.5
	s-2.3,1.1-3.5,1.7C103.7,195.5,104.3,193.7,104.9,192z M107.9,198.4c1.9-0.9,3.8-1.7,5.7-2.4c2,1.1,4.1,2.3,6.2,3.7
	c1.8,1.2,3.5,2.4,5.1,3.7c-0.1,2.1-0.3,4.2-0.5,6.4c-0.2,1.9-0.5,3.8-0.9,5.6c-2,1.1-4.1,2.2-6.3,3.2c-2.3,1-4.5,2-6.7,2.8
	c-1.6-0.9-3.2-1.9-4.8-2.9c-1.8-1.2-3.5-2.4-5.2-3.7c0.1-2.1,0.3-4.2,0.5-6.4c0.3-2.4,0.7-4.8,1.2-7
	C104.1,200.3,106,199.3,107.9,198.4z M117.5,194.6c2.5-0.8,4.8-1.4,7.1-1.9c0.3,2.1,0.4,4.4,0.4,6.8c-1.1-0.8-2.2-1.6-3.3-2.3
	C120.3,196.3,118.9,195.5,117.5,194.6z M98.7,203.3c-0.3,1.6-0.5,3.1-0.7,4.8c-0.2,1.4-0.3,2.8-0.4,4.1c-1.8-1.6-3.5-3.2-4.9-4.7
	C94.5,206.1,96.5,204.7,98.7,203.3z M127.7,192.1c1.1-0.2,2.2-0.3,3.3-0.4c3.2-0.3,5.9-0.1,7.8,0.5c1.9,0.6,3.1,1.4,3.6,2.5
	s0.4,2.5-0.4,4.4c-0.8,1.8-2.4,4-4.7,6.2c-0.8,0.8-1.8,1.7-2.7,2.5c-1.9-2-4-3.9-6.4-5.8C128.2,198.5,128.1,195.1,127.7,192.1z
	 M90.3,209.4c2.1,2.2,4.5,4.5,7.2,6.6c-0.1,3.1,0,6,0.3,8.7c-1.2,0.2-2.4,0.4-3.6,0.5c-3.2,0.3-5.9,0.1-7.8-0.5s-3.1-1.4-3.6-2.5
	s-0.4-2.5,0.4-4.4c0.8-1.8,2.4-4,4.7-6.2C88.6,210.9,89.4,210.2,90.3,209.4z M109.7,202.4c-3.9,1.8-5.7,6.3-4,9.9s6.3,5.1,10.2,3.3
	s5.7-6.3,4-9.9S113.7,200.6,109.7,202.4z M100.6,218.5c1.1,0.8,2.2,1.6,3.4,2.4c0.9,0.6,1.8,1.2,2.8,1.7c-2,0.6-4,1.2-5.9,1.6
	C100.7,222.4,100.6,220.5,100.6,218.5z M127.9,205.8c1.5,1.3,2.9,2.6,4.2,3.9c-1.5,1.2-3.2,2.3-5,3.4c0.2-1.1,0.3-2.2,0.5-3.3
	C127.7,208.5,127.8,207.2,127.9,205.8z M101.2,227.1c2.8-0.6,5.8-1.5,8.9-2.6c3.2,1.7,6.4,3.2,9.4,4.3c-0.5,1.3-1.1,2.5-1.7,3.6
	c-1.5,2.8-3.1,5-4.7,6.4s-3,2-4.2,1.9c-1.3-0.1-2.5-0.8-3.7-2.4c-1.2-1.6-2.3-3.9-3.1-6.9C101.8,230.2,101.5,228.7,101.2,227.1z
	 M134.1,211.9c1,1.2,2,2.4,2.8,3.5c1.7,2.5,2.8,4.9,3.3,6.8s0.2,3.4-0.6,4.4s-2.1,1.7-4.2,2c-2.1,0.3-4.8,0.1-7.9-0.6
	c-1.2-0.3-2.5-0.6-3.8-1.1c1.1-3.1,2.1-6.4,2.8-10C129.2,215.4,131.8,213.7,134.1,211.9z M114,223.1c1.5-0.6,3-1.2,4.5-1.9
	s2.9-1.4,4.3-2.1c-0.6,2.5-1.3,4.8-2.1,7C118.5,225.3,116.2,224.3,114,223.1z"/>
<path class="st0" d="M233.1,377.4c-1.1,0.5-2.2,1.2-3.2,2.1c-2,1.8-3.8,4.3-5.4,7.3c-0.6,1.2-1.2,2.5-1.8,3.9
	c-1.4-0.4-2.7-0.8-4-1.1c-3.4-0.7-6.4-1-9.1-0.6c-2.6,0.4-5,1.4-6.4,3.3s-1.7,4.3-1.2,6.8s1.8,5.1,3.7,7.8c0.7,0.9,1.4,1.9,2.2,2.9
	c-0.9,0.8-1.8,1.6-2.7,2.4c-2.4,2.4-4.3,4.8-5.4,7.2c-1.1,2.3-1.4,4.7-0.4,6.8c0.9,2,2.9,3.4,5.4,4.1s5.5,0.9,8.9,0.6
	c1.2-0.1,2.5-0.3,3.8-0.5c0.3,1.7,0.6,3.2,1,4.7c0.9,3.2,2,5.9,3.6,7.9c1.5,2,3.5,3.4,5.9,3.5s4.7-1,6.7-2.7c2-1.8,3.8-4.3,5.4-7.3
	c0.6-1.2,1.2-2.5,1.8-3.8c1.4,0.4,2.8,0.8,4.1,1.1c3.4,0.7,6.4,1,9.1,0.6c2.6-0.4,5-1.4,6.4-3.3s1.7-4.3,1.2-6.8s-1.8-5.1-3.7-7.8
	c-0.9-1.2-1.9-2.5-3-3.8c1.1-0.9,2.1-1.8,2.9-2.7c2.4-2.4,4.3-4.8,5.4-7.2c1.1-2.3,1.4-4.7,0.4-6.8c-0.9-2-2.9-3.4-5.4-4.1
	s-5.5-0.9-8.9-0.6c-1.2,0.1-2.4,0.3-3.6,0.5c-0.2-1.2-0.5-2.5-0.8-3.6c-0.9-3.2-2-5.9-3.6-7.9s-3.5-3.4-5.9-3.5
	C235.4,376.7,234.2,377,233.1,377.4z M234.2,380.2c0.7-0.3,1.4-0.4,2-0.4c1.3,0.1,2.5,0.8,3.7,2.4s2.3,3.9,3.1,6.9
	c0.3,1,0.5,2.1,0.7,3.3c-3.2,0.7-6.6,1.7-10.1,3c-2.7-1.4-5.4-2.6-8-3.6c0.5-1.3,1.1-2.5,1.7-3.6c1.5-2.8,3.1-5,4.7-6.4
	C232.8,381,233.5,380.5,234.2,380.2z M207.3,392.7c0.7-0.3,1.5-0.6,2.6-0.7c2.1-0.3,4.8-0.1,7.9,0.6c1.2,0.3,2.5,0.6,3.8,1
	c-0.9,2.6-1.8,5.5-2.5,8.5c-3.2,1.9-6.2,3.8-8.8,5.8c-0.7-0.9-1.4-1.8-2-2.6c-1.7-2.5-2.8-4.9-3.3-6.8c-0.4-1.9-0.2-3.4,0.6-4.4
	C206.1,393.4,206.6,393,207.3,392.7z M224.5,394.5c1.7,0.6,3.5,1.4,5.2,2.2c-1.1,0.5-2.3,1-3.5,1.5s-2.3,1.1-3.5,1.7
	C223.3,398.1,223.9,396.3,224.5,394.5z M227.5,401c1.9-0.9,3.8-1.7,5.7-2.4c2,1.1,4.1,2.3,6.2,3.7c1.8,1.2,3.5,2.4,5.1,3.7
	c-0.1,2.1-0.3,4.2-0.5,6.4c-0.2,1.9-0.5,3.8-0.9,5.6c-2,1.1-4.1,2.2-6.3,3.2c-2.3,1-4.5,2-6.7,2.8c-1.6-0.9-3.2-1.9-4.8-2.9
	c-1.8-1.2-3.5-2.4-5.2-3.7c0.1-2.1,0.3-4.2,0.5-6.4c0.3-2.4,0.7-4.8,1.2-7C223.7,402.8,225.6,401.9,227.5,401z M237.1,397.2
	c2.5-0.8,4.8-1.4,7.1-1.9c0.3,2.1,0.4,4.4,0.4,6.8c-1.1-0.8-2.2-1.6-3.3-2.3C239.9,398.9,238.5,398,237.1,397.2z M218.3,405.9
	c-0.3,1.6-0.5,3.1-0.7,4.8c-0.2,1.4-0.3,2.8-0.4,4.1c-1.8-1.6-3.5-3.2-4.9-4.7C214.1,408.6,216.1,407.3,218.3,405.9z M247.3,394.7
	c1.1-0.2,2.2-0.3,3.3-0.4c3.2-0.3,5.9-0.1,7.8,0.5s3.1,1.4,3.6,2.5s0.4,2.5-0.4,4.4c-0.8,1.8-2.4,4-4.7,6.2
	c-0.8,0.8-1.8,1.7-2.7,2.5c-1.9-2-4-3.9-6.4-5.8C247.8,401,247.7,397.7,247.3,394.7z M209.9,412c2.1,2.2,4.5,4.5,7.2,6.6
	c-0.1,3.1,0,6,0.3,8.7c-1.2,0.2-2.4,0.4-3.6,0.5c-3.2,0.3-5.9,0.1-7.8-0.5c-1.9-0.6-3.1-1.4-3.6-2.5s-0.4-2.5,0.4-4.4
	c0.8-1.8,2.4-4,4.7-6.2C208.2,413.5,209,412.7,209.9,412z M229.4,404.9c-3.9,1.8-5.7,6.3-4,9.9s6.3,5.1,10.2,3.3
	c3.9-1.8,5.7-6.3,4-9.9C237.8,404.6,233.3,403.1,229.4,404.9z M220.2,421.1c1.1,0.8,2.2,1.6,3.4,2.4c0.9,0.6,1.8,1.2,2.8,1.7
	c-2,0.6-4,1.2-5.9,1.6C220.3,424.9,220.2,423,220.2,421.1z M247.5,408.4c1.5,1.3,2.9,2.6,4.2,3.9c-1.5,1.2-3.2,2.3-5,3.4
	c0.2-1.1,0.3-2.2,0.5-3.3C247.3,411.1,247.4,409.7,247.5,408.4z M220.8,429.7c2.8-0.6,5.8-1.5,8.9-2.6c3.2,1.7,6.4,3.2,9.4,4.3
	c-0.5,1.3-1.1,2.5-1.7,3.6c-1.5,2.8-3.1,5-4.7,6.4c-1.6,1.4-3,2-4.2,1.9c-1.3-0.1-2.5-0.8-3.7-2.4s-2.3-3.9-3.1-6.9
	C221.4,432.7,221.1,431.3,220.8,429.7z M253.7,414.5c1,1.2,2,2.4,2.8,3.5c1.7,2.5,2.8,4.9,3.3,6.8c0.4,1.9,0.2,3.4-0.6,4.4
	c-0.8,1-2.1,1.7-4.2,2c-2.1,0.3-4.8,0.1-7.9-0.6c-1.2-0.3-2.5-0.6-3.8-1.1c1.1-3.1,2.1-6.4,2.8-10
	C248.8,418,251.4,416.2,253.7,414.5z M233.6,425.7c1.5-0.6,3-1.2,4.5-1.9c1.5-0.7,2.9-1.4,4.3-2.1c-0.6,2.5-1.3,4.8-2.1,7
	C238.1,427.8,235.8,426.8,233.6,425.7z"/>
<path d="M212.3,273.6c-8.1,8.4-8.8,18-1.9,28.7c-1.4-7.5,0.5-12.8,5.7-15.9c3-1.8,6.5-1.7,10.3-1.6c6.3,0.1,13.6,0.3,21.2-7.5
	c8.1-8.4,8.8-18,1.9-28.7c1.4,7.5-0.5,12.8-5.7,15.9c-3,1.8-6.5,1.7-10.3,1.6C227.2,266,219.9,265.8,212.3,273.6z M217.1,308.8
	c-8.1,8.4-8.8,18-1.9,28.7c-1.4-7.5,0.5-12.8,5.7-15.9c3-1.8,6.5-1.7,10.3-1.6c6.3,0.1,13.6,0.3,21.2-7.5c8.1-8.4,8.8-18,1.9-28.7
	c1.4,7.5-0.5,12.8-5.7,15.9c-3,1.8-6.5,1.7-10.3,1.6C232,301.2,224.7,301,217.1,308.8z"/>
<path d="M111.1,405.5L74,442.7c-1.5,1.5-1.5,3.9,0,5.4l37.3,37.2c1.5,1.5,3.9,1.5,5.4,0l37.1-37.2c1.5-1.5,1.5-3.9,0-5.4l-37.3-37.2
	C115,404,112.6,404,111.1,405.5z M127.3,454.7c4.1,4.1,3.5,8.3,0.1,11.8c-3.1,3.1-7.5,3.3-10.4,2.3l1.3-5.1c1.7,0.5,3.5,0.4,4.8-1
	c1.3-1.3,1.5-2.5-0.4-4.5l-12.8-12.8l4.1-4.1L127.3,454.7z M142,451.8c-3.6,3.6-7.4,3.8-10.8,2.7l1-5.1c2.2,0.5,4.4,0.9,6.3-1
	c1.6-1.6,1.6-3.2,0.5-4.4c-1.3-1.3-2.7-0.9-5.2,0.1l-1.4,0.6c-4,1.6-7.3,2-10.5-1.2c-2.9-2.9-2.9-7.3,0.5-10.8
	c2.5-2.5,5.1-3.4,8.6-2.4l-1.1,5c-1.9-0.5-3-0.3-4.2,0.8c-1.1,1.1-1.1,2.6-0.2,3.5c1.2,1.2,2.3,0.9,4.7,0l1.4-0.6
	c4.7-1.9,8-2.3,11.2,0.9C146.5,443.5,145.7,448.1,142,451.8z"/>
<path d="M111.2-61.7L74-24.5c-1.5,1.5-1.5,3.9,0,5.4l37.3,37.2c1.5,1.5,3.9,1.5,5.4,0l37.1-37.2c1.5-1.5,1.5-3.9,0-5.4l-37.3-37.2
	C115.1-63.2,112.7-63.2,111.2-61.7z M127.4-12.4c4.1,4.1,3.5,8.3,0.1,11.8c-3.1,3.1-7.5,3.3-10.4,2.3l1.3-5.1c1.7,0.5,3.5,0.4,4.8-1
	c1.3-1.3,1.5-2.5-0.4-4.5L110-21.7l4.1-4.1L127.4-12.4z M142.1-15.3c-3.6,3.6-7.4,3.8-10.8,2.7l1-5.1c2.2,0.5,4.4,0.9,6.3-1
	c1.6-1.6,1.6-3.2,0.5-4.4c-1.3-1.3-2.7-0.9-5.2,0.1l-1.4,0.6c-4,1.6-7.3,2-10.5-1.2c-2.9-2.9-2.9-7.3,0.5-10.8
	c2.5-2.5,5.1-3.4,8.6-2.4l-1.1,5c-1.9-0.5-3-0.3-4.2,0.8c-1.1,1.1-1.1,2.6-0.2,3.5c1.2,1.2,2.3,0.9,4.7,0l1.4-0.6
	c4.7-1.9,8-2.3,11.2,0.9C146.6-23.7,145.7-19,142.1-15.3z"/>
<path d="M441.3,39c-0.1,0.1-0.4,0.5-0.7,0.9c-6.9,8-10.2,18.9-8.9,29.2c0.7,5.8,2.8,11.1,6.1,15.7c1.1,1.6,1.5,2,3.4,3.9
	s2.3,2.3,3.9,3.5c10.8,8.1,25.7,9.2,38.3,2.8c2.3-1.2,4.4-2.6,6.7-4.4c0.9-0.7,4.4-4.1,5.1-5c3.2-3.9,5.4-7.7,7-12
	c0.2-0.7,0.3-0.8,0.2-0.8c-0.1,0-4.5-0.6-9.8-1.3l-9.6-1.3l-12.7-2.3c-7-1.3-12.7-2.3-12.7-2.3s3.2,3.4,7.2,7.5
	c7,7.2,7.2,7.5,7.3,7.7c0.1,0.4,0.1,0.6,0,0.9c-0.1,0.2-0.2,0.4-1,1.2l-0.9,0.9l-0.4,0.1c-0.2,0.1-0.5,0-0.7,0l-0.3-0.1l-9.7-10
	l-9.7-10v-0.4c0-0.2,0-0.5,0.1-0.7c0.1-0.3,0.2-0.4,1.1-1.3c1.1-1,1.3-1.2,1.8-1.2c0.2,0,7.1,1.3,15.4,3s19.7,3.9,25.3,5l10.2,2
	l0.1-0.3c0.8-3,1.1-6.6,1-9.9c-0.2-7-2.4-13.6-6.4-19.1c-1.1-1.6-1.5-2-3.4-3.9c-1.8-1.9-2.3-2.3-3.9-3.5
	c-10.8-8.1-25.7-9.2-38.3-2.8c-2.2,1.1-4.4,2.5-6.6,4.3C445.2,35.2,441.7,38.5,441.3,39L441.3,39z M467.2,43.7
	c0.4-0.1,0.8-0.1,1.1,0.1c0.2,0.1,2.9,2.8,8.9,9.1l8.7,9l-4-0.8l-4-0.8l-6.3-6.5c-4.1-4.2-6.4-6.6-6.5-6.7c-0.2-0.4-0.2-0.8-0.1-1.1
	s0.2-0.4,1-1.2C466.8,43.9,467,43.8,467.2,43.7L467.2,43.7z"/>
<path d="M-25.4,39c-0.1,0.1-0.4,0.5-0.7,0.9c-6.9,8-10.2,18.9-8.9,29.2c0.7,5.8,2.8,11.1,6.1,15.7c1.1,1.6,1.5,2,3.4,3.9
	c1.8,1.9,2.3,2.3,3.9,3.5c10.8,8.1,25.7,9.2,38.3,2.8c2.3-1.2,4.4-2.6,6.7-4.4c0.9-0.7,4.4-4.1,5.1-5c3.2-3.9,5.4-7.7,7-12
	c0.2-0.7,0.3-0.8,0.2-0.8s-4.5-0.6-9.8-1.3l-9.6-1.3L3.5,67.8c-7-1.3-12.7-2.3-12.7-2.3S-6,68.9-2,73c7,7.2,7.2,7.5,7.3,7.7
	c0.1,0.4,0.1,0.6,0,0.9c-0.1,0.2-0.2,0.4-1,1.2l-0.9,0.9L3,83.8c-0.2,0.1-0.5,0-0.7,0L2,83.7l-9.7-10l-9.7-10v-0.4
	c0-0.2,0-0.5,0.1-0.7c0.1-0.3,0.2-0.4,1.1-1.3c1.1-1,1.3-1.2,1.8-1.2c0.2,0,7.1,1.3,15.4,3c8.3,1.6,19.7,3.9,25.3,5l10.2,2l0.1-0.3
	c0.8-3,1.1-6.6,1-9.9c-0.2-7-2.4-13.6-6.4-19.1c-1.1-1.6-1.5-2-3.4-3.9c-1.8-1.9-2.3-2.3-3.9-3.5c-10.8-8.1-25.7-9.2-38.3-2.8
	c-2.2,1.1-4.4,2.5-6.6,4.3C-21.5,35.3-25,38.6-25.4,39L-25.4,39z M0.5,43.8c0.4-0.1,0.8-0.1,1.1,0.1c0.2,0.1,2.9,2.8,8.9,9.1l8.7,9
	l-4-0.8l-4-0.8l-6.3-6.5c-4.1-4.2-6.4-6.6-6.5-6.7c-0.2-0.4-0.2-0.8-0.1-1.1s0.2-0.4,1-1.2C0.1,44,0.2,43.9,0.5,43.8L0.5,43.8z"/>
<path d="M462.5,131.7l-37.2,37.2c-1.5,1.5-1.5,3.9,0,5.4l37.3,37.2c1.5,1.5,3.9,1.5,5.4,0l37.1-37.2c1.5-1.5,1.5-3.9,0-5.4
	l-37.3-37.2C466.4,130.2,464,130.2,462.5,131.7z M478.7,180.9c4.1,4.1,3.5,8.3,0.1,11.8c-3.1,3.1-7.5,3.3-10.4,2.3l1.3-5.1
	c1.7,0.5,3.5,0.4,4.8-1c1.3-1.3,1.5-2.5-0.4-4.5l-12.8-12.8l4.1-4.1L478.7,180.9z M493.4,178c-3.6,3.6-7.4,3.8-10.8,2.7l1-5.1
	c2.2,0.5,4.4,0.9,6.3-1c1.6-1.6,1.6-3.2,0.5-4.4c-1.3-1.3-2.7-0.9-5.2,0.1l-1.4,0.6c-4,1.6-7.3,2-10.5-1.2
	c-2.9-2.9-2.9-7.3,0.5-10.8c2.5-2.5,5.1-3.4,8.6-2.4l-1.1,5c-1.9-0.5-3-0.3-4.2,0.8c-1.1,1.1-1.1,2.6-0.2,3.5c1.2,1.2,2.3,0.9,4.7,0
	l1.4-0.6c4.7-1.9,8-2.3,11.2,0.9C497.9,169.7,497.1,174.3,493.4,178z"/>
<path d="M-4.7,131.7l-37.2,37.2c-1.5,1.5-1.5,3.9,0,5.4l37.3,37.2c1.5,1.5,3.9,1.5,5.4,0l37.1-37.2c1.5-1.5,1.5-3.9,0-5.4L0.7,131.7
	C-0.8,130.2-3.2,130.2-4.7,131.7z M11.5,180.9c4.1,4.1,3.5,8.3,0.1,11.8c-3.1,3.1-7.5,3.3-10.4,2.3l1.3-5.1c1.7,0.5,3.5,0.4,4.8-1
	c1.3-1.3,1.5-2.5-0.4-4.5l-12.8-12.8l4.1-4.1L11.5,180.9z M26.2,178c-3.6,3.6-7.4,3.8-10.8,2.7l1-5.1c2.2,0.5,4.4,0.9,6.3-1
	c1.6-1.6,1.6-3.2,0.5-4.4c-1.3-1.3-2.7-0.9-5.2,0.1l-1.4,0.6c-4,1.6-7.3,2-10.5-1.2c-2.9-2.9-2.9-7.3,0.5-10.8
	c2.5-2.5,5.1-3.4,8.6-2.4l-1.1,5c-1.9-0.5-3-0.3-4.2,0.8c-1.1,1.1-1.1,2.6-0.2,3.5c1.2,1.2,2.3,0.9,4.7,0l1.4-0.6
	c4.7-1.9,8-2.3,11.2,0.9C30.7,169.7,29.9,174.3,26.2,178z"/>
<path d="M330.2,73.6c-8.1,8.4-8.8,18-1.9,28.7c-1.4-7.5,0.5-12.8,5.7-15.9c3-1.8,6.5-1.7,10.3-1.6c6.3,0.1,13.6,0.3,21.2-7.5
	c8.1-8.4,8.8-18,1.9-28.7c1.4,7.5-0.5,12.8-5.7,15.9c-3,1.8-6.5,1.7-10.3,1.6C345.1,65.9,337.8,65.8,330.2,73.6z M335,108.8
	c-8.1,8.4-8.8,18-1.9,28.7c-1.4-7.5,0.5-12.8,5.7-15.9c3-1.8,6.5-1.7,10.3-1.6c6.3,0.1,13.6,0.3,21.2-7.5c8.1-8.4,8.8-18,1.9-28.7
	c1.4,7.5-0.5,12.8-5.7,15.9c-3,1.8-6.5,1.7-10.3,1.6C349.9,101.1,342.6,101,335,108.8z"/>
<path d="M447.6,271.5c-8.1,8.4-8.8,18-1.9,28.7c-1.4-7.5,0.5-12.8,5.7-15.9c3-1.8,6.5-1.7,10.3-1.6c6.3,0.1,13.6,0.3,21.2-7.5
	c8.1-8.4,8.8-18,1.9-28.7c1.4,7.5-0.5,12.8-5.7,15.9c-3,1.8-6.5,1.7-10.3,1.6C462.5,263.9,455.2,263.7,447.6,271.5z M452.4,306.7
	c-8.1,8.4-8.8,18-1.9,28.7c-1.4-7.5,0.5-12.8,5.7-15.9c3-1.8,6.5-1.7,10.3-1.6c6.3,0.1,13.6,0.3,21.2-7.5c8.1-8.4,8.8-18,1.9-28.7
	c1.4,7.5-0.5,12.8-5.7,15.9c-3,1.8-6.5,1.7-10.3,1.6C467.3,299.1,460,298.9,452.4,306.7z"/>
<path d="M-19,271.6c-8.1,8.4-8.8,18-1.9,28.7c-1.4-7.5,0.5-12.8,5.7-15.9c3-1.8,6.5-1.7,10.3-1.6c6.3,0.1,13.6,0.3,21.2-7.5
	c8.1-8.4,8.8-18,1.9-28.7c1.4,7.5-0.5,12.8-5.7,15.9c-3,1.8-6.5,1.7-10.3,1.6C-4.1,263.9-11.4,263.8-19,271.6z M-14.2,306.8
	c-8.1,8.4-8.8,18-1.9,28.7c-1.4-7.5,0.5-12.8,5.7-15.9c3-1.8,6.5-1.7,10.3-1.6c6.3,0.1,13.6,0.3,21.2-7.5c8.1-8.4,8.8-18,1.9-28.7
	c1.4,7.5-0.5,12.8-5.7,15.9c-3,1.8-6.5,1.7-10.3,1.6C0.7,299.1-6.6,299-14.2,306.8z"/>
<path class="st0" d="M1.8,383.6c-1.1,0.4-2.2,1.2-3.2,2.1c-2,1.8-3.8,4.3-5.4,7.3c-0.6,1.2-1.2,2.5-1.8,3.9c-1.4-0.4-2.7-0.8-4-1.1
	c-3.4-0.7-6.4-1-9.1-0.6c-2.6,0.4-5,1.4-6.4,3.3s-1.7,4.3-1.2,6.8s1.8,5.1,3.7,7.8c0.7,0.9,1.4,1.9,2.2,2.9
	c-0.9,0.8-1.8,1.6-2.7,2.4c-2.4,2.4-4.3,4.8-5.4,7.2s-1.4,4.7-0.4,6.8c0.9,2,2.9,3.4,5.4,4.1s5.5,0.9,8.9,0.6
	c1.2-0.1,2.5-0.3,3.8-0.5c0.3,1.7,0.6,3.2,1,4.7c0.9,3.2,2,5.9,3.6,7.9c1.5,2,3.5,3.4,5.9,3.5s4.7-1,6.7-2.7s3.8-4.3,5.4-7.3
	c0.6-1.2,1.2-2.5,1.8-3.8c1.4,0.4,2.8,0.8,4.1,1.1c3.4,0.7,6.4,1,9.1,0.6c2.6-0.4,5-1.4,6.4-3.3s1.7-4.3,1.2-6.8
	c-0.5-2.5-1.8-5.1-3.7-7.8c-0.9-1.2-1.9-2.5-3-3.8c1.1-0.9,2.1-1.8,2.9-2.7c2.4-2.4,4.3-4.8,5.4-7.2s1.4-4.7,0.4-6.8
	c-0.9-2-2.9-3.4-5.4-4.1s-5.5-0.9-8.9-0.6c-1.2,0.1-2.4,0.3-3.6,0.5c-0.2-1.2-0.5-2.5-0.8-3.6c-0.9-3.2-2-5.9-3.6-7.9
	c-1.5-2-3.5-3.4-5.9-3.5C4.1,382.9,2.9,383.1,1.8,383.6z M2.9,386.3c0.7-0.3,1.4-0.4,2-0.4c1.3,0.1,2.5,0.8,3.7,2.4s2.3,3.9,3.1,6.9
	c0.3,1,0.5,2.1,0.7,3.3c-3.2,0.7-6.6,1.7-10.1,3c-2.7-1.4-5.4-2.6-8-3.6c0.5-1.3,1.1-2.5,1.7-3.6c1.5-2.8,3.1-5,4.7-6.4
	C1.5,387.1,2.2,386.6,2.9,386.3z M-24,398.8c0.7-0.3,1.5-0.6,2.6-0.7c2.1-0.3,4.8-0.1,7.9,0.6c1.2,0.3,2.5,0.6,3.8,1
	c-0.9,2.6-1.8,5.5-2.5,8.5c-3.2,1.9-6.2,3.8-8.8,5.8c-0.7-0.9-1.4-1.8-2-2.6c-1.7-2.5-2.8-4.9-3.3-6.8c-0.4-1.9-0.2-3.4,0.6-4.4
	C-25.2,399.6-24.7,399.1-24,398.8z M-6.8,400.7c1.7,0.6,3.5,1.4,5.2,2.2c-1.1,0.5-2.3,1-3.5,1.5s-2.3,1.1-3.5,1.7
	C-8,404.2-7.4,402.4-6.8,400.7z M-3.8,407.1c1.9-0.9,3.8-1.7,5.7-2.4c2,1.1,4.1,2.3,6.2,3.7c1.8,1.2,3.5,2.4,5.1,3.7
	c-0.1,2.1-0.3,4.2-0.5,6.4c-0.2,1.9-0.5,3.8-0.9,5.6c-2,1.1-4.1,2.2-6.3,3.2c-2.3,1-4.5,2-6.7,2.8c-1.6-0.9-3.2-1.9-4.8-2.9
	c-1.8-1.2-3.5-2.4-5.2-3.7c0.1-2.1,0.3-4.2,0.5-6.4c0.3-2.4,0.7-4.8,1.2-7C-7.6,409-5.7,408-3.8,407.1z M5.8,403.3
	c2.5-0.8,4.8-1.4,7.1-1.9c0.3,2.1,0.4,4.4,0.4,6.8c-1.1-0.8-2.2-1.6-3.3-2.3C8.6,405,7.2,404.2,5.8,403.3z M-13,412
	c-0.3,1.6-0.5,3.1-0.7,4.8c-0.2,1.4-0.3,2.8-0.4,4.1c-1.8-1.6-3.5-3.2-4.9-4.7C-17.2,414.8-15.2,413.4-13,412z M16,400.8
	c1.1-0.2,2.2-0.3,3.3-0.4c3.2-0.3,5.9-0.1,7.8,0.5s3.1,1.4,3.6,2.5s0.4,2.5-0.4,4.4c-0.8,1.8-2.4,4-4.7,6.2
	c-0.8,0.8-1.8,1.7-2.7,2.5c-1.9-2-4-3.9-6.4-5.8C16.5,407.1,16.4,403.8,16,400.8z M-21.4,418.1c2.1,2.2,4.5,4.5,7.2,6.6
	c-0.1,3.1,0,6,0.3,8.7c-1.2,0.2-2.4,0.4-3.6,0.5c-3.2,0.3-5.9,0.1-7.8-0.5s-3.1-1.4-3.6-2.5s-0.4-2.5,0.4-4.4c0.8-1.8,2.4-4,4.7-6.2
	C-23.1,419.6-22.3,418.9-21.4,418.1z M-2,411.1c-3.9,1.8-5.7,6.3-4,9.9s6.3,5.1,10.2,3.3c3.9-1.8,5.7-6.3,4-9.9S2,409.3-2,411.1z
	 M-11.1,427.2c1.1,0.8,2.2,1.6,3.4,2.4c0.9,0.6,1.8,1.2,2.8,1.7c-2,0.6-4,1.2-5.9,1.6C-11,431.1-11.1,429.2-11.1,427.2z M16.2,414.5
	c1.5,1.3,2.9,2.6,4.2,3.9c-1.5,1.2-3.2,2.3-5,3.4c0.2-1.1,0.3-2.2,0.5-3.3C16,417.2,16.1,415.9,16.2,414.5z M-10.5,435.8
	c2.8-0.6,5.8-1.5,8.9-2.6c3.2,1.7,6.4,3.2,9.4,4.3c-0.5,1.3-1.1,2.5-1.7,3.6c-1.5,2.8-3.1,5-4.7,6.4s-3,2-4.2,1.9
	c-1.3-0.1-2.5-0.8-3.7-2.4s-2.3-3.9-3.1-6.9C-9.9,438.9-10.2,437.4-10.5,435.8z M22.4,420.6c1,1.2,2,2.4,2.8,3.5
	c1.7,2.5,2.8,4.9,3.3,6.8c0.4,1.9,0.2,3.4-0.6,4.4s-2.1,1.7-4.2,2s-4.8,0.1-7.9-0.6c-1.2-0.3-2.5-0.6-3.8-1.1
	c1.1-3.1,2.1-6.4,2.8-10C17.5,424.1,20.1,422.4,22.4,420.6z M2.3,431.8c1.5-0.6,3-1.2,4.5-1.9c1.5-0.7,2.9-1.4,4.3-2.1
	c-0.6,2.5-1.3,4.8-2.1,7C6.8,434,4.5,433,2.3,431.8z"/>
<path class="st0" d="M468.6,384.1c-1.1,0.5-2.2,1.2-3.2,2.1c-2,1.8-3.8,4.3-5.4,7.3c-0.6,1.2-1.2,2.5-1.8,3.9
	c-1.4-0.4-2.7-0.8-4-1.1c-3.4-0.7-6.4-1-9.1-0.6c-2.6,0.4-5,1.4-6.4,3.3s-1.7,4.3-1.2,6.8s1.8,5.1,3.7,7.8c0.7,0.9,1.4,1.9,2.2,2.9
	c-0.9,0.8-1.8,1.6-2.7,2.4c-2.4,2.4-4.3,4.8-5.4,7.2c-1.1,2.3-1.4,4.7-0.4,6.8c0.9,2,2.9,3.4,5.4,4.1s5.5,0.9,8.9,0.6
	c1.2-0.1,2.5-0.3,3.8-0.5c0.3,1.7,0.6,3.2,1,4.7c0.9,3.2,2,5.9,3.6,7.9c1.5,2,3.5,3.4,5.9,3.5s4.7-1,6.7-2.7s3.8-4.3,5.4-7.3
	c0.6-1.2,1.2-2.5,1.8-3.8c1.4,0.4,2.8,0.8,4.1,1.1c3.4,0.7,6.4,1,9.1,0.6c2.6-0.4,5-1.4,6.4-3.3s1.7-4.3,1.2-6.8s-1.8-5.1-3.7-7.8
	c-0.9-1.2-1.9-2.5-3-3.8c1.1-0.9,2.1-1.8,2.9-2.7c2.4-2.4,4.3-4.8,5.4-7.2c1.1-2.3,1.4-4.7,0.4-6.8c-0.9-2-2.9-3.4-5.4-4.1
	s-5.5-0.9-8.9-0.6c-1.2,0.1-2.4,0.3-3.6,0.5c-0.2-1.2-0.5-2.5-0.8-3.6c-0.9-3.2-2-5.9-3.6-7.9c-1.5-2-3.5-3.4-5.9-3.5
	C470.9,383.4,469.7,383.6,468.6,384.1z M469.7,386.8c0.7-0.3,1.4-0.4,2-0.4c1.3,0.1,2.5,0.8,3.7,2.4s2.3,3.9,3.1,6.9
	c0.3,1,0.5,2.1,0.7,3.3c-3.2,0.7-6.6,1.7-10.1,3c-2.7-1.4-5.4-2.6-8-3.6c0.5-1.3,1.1-2.5,1.7-3.6c1.5-2.8,3.1-5,4.7-6.4
	C468.3,387.6,469,387.1,469.7,386.8z M442.8,399.3c0.7-0.3,1.5-0.6,2.6-0.7c2.1-0.3,4.8-0.1,7.9,0.6c1.2,0.3,2.5,0.6,3.8,1
	c-0.9,2.6-1.8,5.5-2.5,8.5c-3.2,1.9-6.2,3.8-8.8,5.8c-0.7-0.9-1.4-1.8-2-2.6c-1.7-2.5-2.8-4.9-3.3-6.8c-0.4-1.9-0.2-3.4,0.6-4.4
	C441.5,400.1,442.1,399.7,442.8,399.3z M460,401.2c1.7,0.6,3.5,1.4,5.2,2.2c-1.1,0.5-2.3,1-3.5,1.5s-2.3,1.1-3.5,1.7
	C458.8,404.7,459.4,402.9,460,401.2z M463,407.6c1.9-0.9,3.8-1.7,5.7-2.4c2,1.1,4.1,2.3,6.2,3.7c1.8,1.2,3.5,2.4,5.1,3.7
	c-0.1,2.1-0.3,4.2-0.5,6.4c-0.2,1.9-0.5,3.8-0.9,5.6c-2,1.1-4.1,2.2-6.3,3.2c-2.3,1-4.5,2-6.7,2.8c-1.6-0.9-3.2-1.9-4.8-2.9
	c-1.8-1.2-3.5-2.4-5.2-3.7c0.1-2.1,0.3-4.2,0.5-6.4c0.3-2.4,0.7-4.8,1.2-7C459.2,409.5,461.1,408.5,463,407.6z M472.6,403.8
	c2.5-0.8,4.8-1.4,7.1-1.9c0.3,2.1,0.4,4.4,0.4,6.8c-1.1-0.8-2.2-1.6-3.3-2.3C475.3,405.5,473.9,404.7,472.6,403.8z M453.8,412.5
	c-0.3,1.6-0.5,3.1-0.7,4.8c-0.2,1.4-0.3,2.8-0.4,4.1c-1.8-1.6-3.5-3.2-4.9-4.7C449.6,415.3,451.6,413.9,453.8,412.5z M482.8,401.3
	c1.1-0.2,2.2-0.3,3.3-0.4c3.2-0.3,5.9-0.1,7.8,0.5s3.1,1.4,3.6,2.5s0.4,2.5-0.4,4.4c-0.8,1.8-2.4,4-4.7,6.2
	c-0.8,0.8-1.8,1.7-2.7,2.5c-1.9-2-4-3.9-6.4-5.8C483.3,407.7,483.1,404.4,482.8,401.3z M445.4,418.6c2.1,2.2,4.5,4.5,7.2,6.6
	c-0.1,3.1,0,6,0.3,8.7c-1.2,0.2-2.4,0.4-3.6,0.5c-3.2,0.3-5.9,0.1-7.8-0.5s-3.1-1.4-3.6-2.5s-0.4-2.5,0.4-4.4c0.8-1.8,2.4-4,4.7-6.2
	C443.7,420.1,444.5,419.4,445.4,418.6z M464.8,411.6c-3.9,1.8-5.7,6.3-4,9.9s6.3,5.1,10.2,3.3c3.9-1.8,5.7-6.3,4-9.9
	S468.7,409.8,464.8,411.6z M455.6,427.7c1.1,0.8,2.2,1.6,3.4,2.4c0.9,0.6,1.8,1.2,2.8,1.7c-2,0.6-4,1.2-5.9,1.6
	C455.8,431.6,455.7,429.7,455.6,427.7z M483,415c1.5,1.3,2.9,2.6,4.2,3.9c-1.5,1.2-3.2,2.3-5,3.4c0.2-1.1,0.3-2.2,0.5-3.3
	C482.8,417.7,482.9,416.4,483,415z M456.3,436.3c2.8-0.6,5.8-1.5,8.9-2.6c3.2,1.7,6.4,3.2,9.4,4.3c-0.5,1.3-1.1,2.5-1.7,3.6
	c-1.5,2.8-3.1,5-4.7,6.4s-3,2-4.2,1.9c-1.3-0.1-2.5-0.8-3.7-2.4s-2.3-3.9-3.1-6.9C456.8,439.4,456.6,437.9,456.3,436.3z
	 M489.2,421.1c1,1.2,2,2.4,2.8,3.5c1.7,2.5,2.8,4.9,3.3,6.8c0.4,1.9,0.2,3.4-0.6,4.4c-0.8,1-2.1,1.7-4.2,2s-4.8,0.1-7.9-0.6
	c-1.2-0.3-2.5-0.6-3.8-1.1c1.1-3.1,2.1-6.4,2.8-10C484.3,424.6,486.9,422.9,489.2,421.1z M469,432.3c1.5-0.6,3-1.2,4.5-1.9
	c1.5-0.7,2.9-1.4,4.3-2.1c-0.6,2.5-1.3,4.8-2.1,7C473.6,434.5,471.3,433.5,469,432.3z"/>
<path d="M350.6,405.5l-37.2,37.2c-1.5,1.5-1.5,3.9,0,5.4l37.3,37.2c1.5,1.5,3.9,1.5,5.4,0l37.1-37.2c1.5-1.5,1.5-3.9,0-5.4
	l-37.3-37.2C354.5,404,352.1,404,350.6,405.5z M366.8,454.7c4.1,4.1,3.5,8.3,0.1,11.8c-3.1,3.1-7.5,3.3-10.4,2.3l1.3-5.1
	c1.7,0.5,3.5,0.4,4.8-1c1.3-1.3,1.5-2.5-0.4-4.5l-12.9-12.8l4.1-4.1L366.8,454.7z M381.5,451.8c-3.6,3.6-7.4,3.8-10.8,2.7l1-5.1
	c2.2,0.5,4.4,0.9,6.3-1c1.6-1.6,1.6-3.2,0.5-4.4c-1.3-1.3-2.7-0.9-5.2,0.1l-1.4,0.6c-4,1.6-7.3,2-10.5-1.2
	c-2.9-2.9-2.9-7.3,0.5-10.8c2.5-2.5,5.1-3.4,8.6-2.4l-1.1,5c-1.9-0.5-3-0.3-4.2,0.8c-1.1,1.1-1.1,2.6-0.2,3.5c1.2,1.2,2.3,0.9,4.7,0
	l1.4-0.6c4.7-1.9,8-2.3,11.2,0.9C386,443.5,385.2,448.1,381.5,451.8z"/>
<path d="M350.5-61.5l-37.2,37.2c-1.5,1.5-1.5,3.9,0,5.4l37.3,37.2c1.5,1.5,3.9,1.5,5.4,0l37.2-37.2c1.5-1.5,1.5-3.9,0-5.4
	l-37.3-37.2C354.4-63,352-63,350.5-61.5z M366.7-12.2c4.1,4.1,3.5,8.3,0.1,11.8c-3.1,3.1-7.5,3.3-10.4,2.3l1.3-5.1
	c1.7,0.5,3.5,0.4,4.8-1c1.3-1.3,1.5-2.5-0.4-4.5l-12.9-12.9l4.1-4.1L366.7-12.2z M381.4-15.1c-3.6,3.6-7.4,3.8-10.8,2.7l1-5.1
	c2.2,0.5,4.4,0.9,6.3-1c1.6-1.6,1.6-3.2,0.5-4.4c-1.3-1.3-2.7-0.9-5.2,0.1l-1.4,0.6c-4,1.6-7.3,2-10.5-1.2
	c-2.9-2.9-2.9-7.3,0.5-10.8c2.5-2.5,5.1-3.4,8.6-2.4l-1.1,5c-1.9-0.5-3-0.3-4.2,0.8c-1.1,1.1-1.1,2.6-0.2,3.5c1.2,1.2,2.3,0.9,4.7,0
	l1.4-0.6c4.7-1.9,8-2.3,11.2,0.9C385.9-23.5,385.1-18.8,381.4-15.1z"/>
</svg>
